<svg width="206" height="23" viewBox="0 0 206 23" fill="none" xmlns="http://www.w3.org/2000/svg">
<path d="M0.0116062 17.6407C4.79313 17.504 9.08721 16.3032 13.1608 15.0429C17.0545 13.6637 21.3834 11.0717 21.9463 6.10783C21.7896 4.30655 19.7238 4.24711 18.8011 4.56218C17.6522 4.83564 16.6077 5.41229 15.7082 6.22078C15.4703 6.41101 15.2846 6.6607 15.0699 6.8866L14.7972 7.27301L14.6637 7.46919C14.4606 7.47513 16.422 7.48108 15.5864 7.46919L15.5864 7.4573L15.5632 7.43352L15.5283 7.38596L15.4645 7.29084C15.1163 6.79148 14.803 6.26239 14.3097 5.84031C13.5322 5.06749 11.8319 3.94392 10.4393 5.35284C9.31932 8.38469 10.5727 10.8339 12.3194 13.093C14.5419 15.2153 17.5709 15.2509 20.3795 15.4649C23.4434 15.4649 28.2249 16.0297 33.9523 14.4305C36.7608 13.8004 39.7899 12.0348 42.7552 11.2204C45.6275 10.4178 49.9274 12.1775 50.5193 15.2569C50.5077 16.7312 48.6972 17.9915 47.055 17.8072C45.3896 17.6883 43.8055 16.2259 43.4747 14.5019C43.1555 12.6709 44.3103 11.1669 46.0744 10.0017C47.6992 8.78893 49.5386 7.87938 51.5 7.29679C59.5775 5.06154 68.3108 7.8556 75.895 11.363C83.4097 15.1023 90.4833 20.0841 98.2011 21.921C102.159 23.0446 106.435 21.2671 108.733 18.4908C111.24 15.9108 113.184 13.093 114.443 10.186C115.847 7.46918 116.016 3.64073 113.677 1.7384C111.478 -0.0569329 108.698 0.311645 107.143 1.32226C103.975 3.4505 103.47 5.75708 103.395 5.64413C103.395 5.64413 103.337 5.76303 103.232 5.98893C103.18 6.10188 103.11 6.24456 103.035 6.41101L102.971 6.5418L102.936 6.61313C103.447 6.5953 101.781 6.66069 104.085 6.57746L104.074 6.55369L104.05 6.51802L103.87 6.21483C103.389 5.35878 102.617 4.0747 101.137 2.95114C99.733 1.86324 97.5279 0.596996 94.8006 1.28065C91.905 1.77407 90.2454 5.75708 91.5104 8.8246C92.5201 11.9278 94.76 14.6564 97.2378 17.1473C99.6228 19.4896 102.669 22.8841 107.103 22.4382C115.041 20.9104 121.923 15.6611 129.455 11.8743C136.958 8.06366 145.517 5.14477 153.751 7.11249C157.488 7.90315 162.177 10.0136 162.885 13.515C163.628 17.3494 157.129 19.335 156.27 15.8811C155.777 12.4925 159.85 10.2216 162.839 11.0004C165.868 11.6187 168.781 13.4675 171.601 14.169C177.259 15.9584 182.092 15.5303 185.15 15.4887C187.971 15.3282 190.93 15.2034 193.269 13.5685C195.567 12.2191 197.435 9.35368 196.518 6.58341C196.187 5.23394 194.655 4.03903 193.234 4.45517C192.601 4.63946 191.951 4.91292 191.522 5.34689L190.826 5.95326L190.814 5.96515C190.089 5.94137 191.783 6.00676 191.609 5.99487L191.586 5.97704L191.545 5.93542L191.464 5.8522L191.301 5.69169L190.976 5.37067C189.52 3.72396 185.818 2.85007 184.756 5.72736C184.007 8.22417 185.545 10.501 187.251 11.7494C188.963 13.0395 190.802 14.163 192.845 14.8883C196.901 16.2556 201.218 17.3494 206 17.4505C201.242 17.1473 196.977 15.8692 193.037 14.377C189.59 12.7482 184.634 10.1443 185.62 6.06621C186.212 4.21738 188.969 4.72863 190.251 6.17916L190.518 6.45262L190.652 6.58935L190.721 6.65474L190.756 6.69041L190.773 6.70825C190.599 6.70825 192.3 6.77364 191.586 6.73797L191.597 6.73797L192.183 6.23861C192.549 5.86409 193.025 5.72141 193.448 5.58468C194.331 5.36472 195.12 5.98893 195.404 6.95793C196.054 8.997 194.679 11.2917 192.607 12.4985C190.623 13.9074 187.889 14.056 185.092 14.1987C182.034 14.2403 177.375 14.6505 171.961 12.9265C169.17 12.2488 166.616 10.4951 163.019 9.71632C159.705 8.90188 154.396 11.2025 155.04 16.2318C156.798 21.4335 164.968 18.5681 164.144 13.3605C162.868 8.43819 158.028 6.89254 154.007 5.83436C145.419 3.77746 136.43 6.85092 128.892 10.7032C121.25 14.5851 114.327 19.7333 106.963 21.1422C103.354 21.5703 100.522 18.6216 98.1314 16.2259C95.6652 13.7588 93.6226 11.2025 92.7174 8.43224C91.7077 5.68575 92.9669 2.96303 95.1372 2.52906C97.1914 1.98808 99.1469 3.01058 100.366 3.97959C101.665 4.96048 102.333 6.09594 102.756 6.83309L102.913 7.09466L102.93 7.12439L102.942 7.13628C105.246 7.06494 103.586 7.11844 104.097 7.09466L104.126 7.02927L104.184 6.91037C104.253 6.75581 104.317 6.63097 104.364 6.52991C104.462 6.32184 104.509 6.21483 104.509 6.21483C104.549 6.31589 105.106 4.19954 107.753 2.43988C109.052 1.60761 111.147 1.35793 112.865 2.73118C114.548 4.0747 114.594 7.0471 113.271 9.65687C112.105 12.3558 110.225 15.0964 107.834 17.5575C105.547 20.1911 102.135 21.594 98.4622 20.6369C91.0346 18.8654 84.1466 14.0322 76.4173 10.1681C68.7286 6.61908 59.7458 3.67046 51.146 6.03055C49.0454 6.65475 47.0492 7.64159 45.32 8.93755C43.6256 9.966 41.6758 12.2369 42.2155 14.7278C42.7029 17.0879 44.6585 18.8951 46.9448 19.0972C49.1324 19.2934 51.6335 17.831 51.7843 15.2688C50.7514 10.5129 45.8713 9.24074 42.4998 9.93628C38.9601 10.9469 36.4475 12.5223 33.6099 13.1703C28.1669 14.71 23.484 14.1749 20.4259 14.169C17.6812 14.0085 14.7972 13.8123 13.184 12.1953C11.6695 10.6615 10.7758 7.52269 11.3271 6.11972C11.6985 5.56685 12.8532 5.9711 13.538 6.68447C13.9384 7.00549 14.2169 7.47513 14.5303 7.89721L14.5883 7.9745L14.6173 8.01611L14.6289 8.03394L14.6289 8.04583C13.8049 8.04583 15.7779 8.06367 15.5748 8.05178L15.6792 7.89721L15.8939 7.58808C16.068 7.4038 16.2131 7.19573 16.4104 7.02927C17.6348 5.72142 20.7161 4.66324 21.012 6.18511C20.6986 10.1979 16.7527 13.1167 12.9751 14.5257C8.98276 15.9286 4.76992 17.3019 6.13977e-07 17.6467L0.0116062 17.6407Z" fill="#FBF0C6"/>
</svg>
